<?xml version="1.0" encoding="UTF-8"?>
<svg id="Capa_2" data-name="Capa 2" xmlns="http://www.w3.org/2000/svg" viewBox="0 0 169.43 169.43">
  <defs>
    <style>
      .cls-1 {
        fill: #7c7364;
      }
    </style>
  </defs>
  <g id="Capa_1-2" data-name="Capa 1">
    <g>
      <path class="cls-1" d="m84.71,0c-4.88,0-9.66.42-14.32,1.21l.36,1.67c.54,2.5,2.89,4.16,5.43,3.88,2.8-.31,5.65-.46,8.53-.46,43.31,0,78.42,35.11,78.42,78.42s-35.11,78.42-78.42,78.42c-2.43,0-4.84-.12-7.22-.33v.79c.03,3.19,2.59,5.77,5.78,5.83.48,0,.96.01,1.43.01,46.79,0,84.71-37.93,84.71-84.71S131.5,0,84.71,0Z"/>
      <path class="cls-1" d="m113.28,141.54c21.33,0,30.53-12.56,30.53-28.49,0-13.44-8.18-23.67-20.6-26.59,8.47-2.92,12.27-10.52,12.27-20.45,0-13.29-8.03-23.81-26.59-23.81h-31.55v30.26L53.1,12.93l-2.34-5.8C20.83,20.2,0,49.97,0,84.71c0,39.89,27.57,73.33,64.69,82.33l.1-.36c.9-3.09-.88-6.28-3.95-7.26C29.21,149.33,6.3,119.7,6.3,84.71c0-29.38,16.13-54.96,40.04-68.39L11.08,105.35h3.44c1.53,0,2.9-.95,3.43-2.39l4.95-13.38h54.44v51.96h35.94Zm-29.95-94.08h24.98c15.78,0,21.18,8.04,21.18,18.55s-4.53,18.55-18.55,18.55h-27.61v-37.11Zm29.07,42.36c17.82,0,25.42,9.93,25.42,23.23s-6.72,23.23-25.27,23.23h-29.22v-46.45h29.07Zm-37.77-8.07l-39.59-22.86,12.41-31.26c1.46-3.51,2.92-9.06,2.92-9.06,0,0,1.46,5.55,2.92,9.06l21.34,54.12Zm-41.37-18.38l36.28,20.95H24.95l8.31-20.95Z"/>
    </g>
  </g>
</svg>