<?xml version="1.0" encoding="UTF-8"?>
<svg id="Capa_2" data-name="Capa 2" xmlns="http://www.w3.org/2000/svg" viewBox="0 0 175.69 175.69">
  <defs>
    <style>
      .cls-1 {
        fill: #303030;
      }
    </style>
  </defs>
  <g id="Capa_1-2" data-name="Capa 1">
    <g>
      <path class="cls-1" d="m87.84,0c-5.06,0-10.02.43-14.85,1.26l.37,1.73c.56,2.6,2.99,4.31,5.63,4.02,2.91-.32,5.86-.48,8.85-.48,44.91,0,81.31,36.41,81.31,81.31s-36.41,81.31-81.31,81.31c-2.52,0-5.02-.12-7.48-.35v.82c.03,3.31,2.69,5.98,6,6.04.49,0,.99.01,1.49.01,48.52,0,87.84-39.33,87.84-87.84S136.36,0,87.84,0Z"/>
      <path class="cls-1" d="m117.46,146.77c22.12,0,31.66-13.03,31.66-29.54,0-13.94-8.48-24.54-21.36-27.57,8.79-3.03,12.72-10.91,12.72-21.21,0-13.78-8.33-24.69-27.57-24.69h-32.72v31.38L55.07,13.41l-2.43-6.01C21.6,20.95,0,51.81,0,87.84c0,41.36,28.59,76.04,67.08,85.37l.11-.37c.93-3.21-.91-6.51-4.09-7.52C30.29,154.85,6.53,124.12,6.53,87.84c0-30.47,16.72-56.99,41.52-70.91L11.48,109.25h3.57c1.59,0,3.01-.99,3.56-2.48l5.14-13.87h56.45v53.88h37.26Zm-31.05-97.55h25.9c16.36,0,21.96,8.33,21.96,19.24s-4.7,19.24-19.24,19.24h-28.63v-38.48Zm30.14,43.93c18.48,0,26.36,10.3,26.36,24.09s-6.97,24.09-26.21,24.09h-30.3v-48.17h30.14Zm-39.17-8.37l-41.05-23.7,12.87-32.42c1.52-3.64,3.03-9.39,3.03-9.39,0,0,1.52,5.76,3.03,9.39l22.13,56.12Zm-42.9-19.06l37.62,21.72H25.87l8.62-21.72Z"/>
    </g>
  </g>
</svg>